<svg xmlns="http://www.w3.org/2000/svg" xmlns:xlink="http://www.w3.org/1999/xlink" width="960" zoomAndPan="magnify" viewBox="0 0 720 972.749988" height="1297" preserveAspectRatio="xMidYMid meet" version="1.0"><defs><clipPath id="0188dac949"><path d="M 46.476562 217 L 673.316406 217 L 673.316406 928.125 L 46.476562 928.125 Z M 46.476562 217 " clip-rule="nonzero"/></clipPath><clipPath id="b32b0aa40d"><path d="M 105 44.101562 L 222 44.101562 L 222 164 L 105 164 Z M 105 44.101562 " clip-rule="nonzero"/></clipPath><clipPath id="8aeee8ff8d"><path d="M 238 44.101562 L 349 44.101562 L 349 164 L 238 164 Z M 238 44.101562 " clip-rule="nonzero"/></clipPath><clipPath id="d0db76dc1b"><path d="M 366 44.101562 L 501 44.101562 L 501 164 L 366 164 Z M 366 44.101562 " clip-rule="nonzero"/></clipPath><clipPath id="ab2dce5413"><path d="M 520 44.101562 L 616 44.101562 L 616 164 L 520 164 Z M 520 44.101562 " clip-rule="nonzero"/></clipPath></defs><g clip-path="url(#0188dac949)"><path fill="#e44d26" d="M 673.140625 217.828125 L 616.089844 856.996094 L 359.625 928.089844 L 103.875 857.09375 L 46.882812 217.828125 L 673.128906 217.816406 L 673.152344 217.816406 Z M 673.140625 217.828125 " fill-opacity="1" fill-rule="nonzero"/></g><path fill="#f16529" d="M 360.019531 873.746094 L 567.261719 816.300781 L 616.015625 270.101562 L 360.019531 270.09375 Z M 360.019531 873.746094 " fill-opacity="1" fill-rule="nonzero"/><path fill="#ebebeb" d="M 249.105469 426.898438 L 360.019531 426.898438 L 360.019531 348.488281 L 163.421875 348.488281 L 165.296875 369.527344 L 184.570312 585.585938 L 360.019531 585.585938 L 360.019531 507.199219 L 256.273438 507.199219 Z M 249.105469 426.898438 " fill-opacity="1" fill-rule="nonzero"/><path fill="#ebebeb" d="M 266.777344 624.792969 L 188.070312 624.792969 L 199.054688 747.90625 L 359.648438 792.488281 L 360.019531 792.390625 L 360.019531 710.8125 L 359.675781 710.910156 L 272.359375 687.320312 Z M 266.777344 624.792969 " fill-opacity="1" fill-rule="nonzero"/><g clip-path="url(#b32b0aa40d)"><path fill="#000000" d="M 105.152344 44.101562 L 144.996094 44.101562 L 144.996094 83.464844 L 181.441406 83.464844 L 181.441406 44.101562 L 221.285156 44.101562 L 221.285156 163.308594 L 181.445312 163.308594 L 181.445312 123.390625 L 144.996094 123.390625 L 144.996094 163.308594 L 105.152344 163.308594 Z M 105.152344 44.101562 " fill-opacity="1" fill-rule="nonzero"/></g><g clip-path="url(#8aeee8ff8d)"><path fill="#000000" d="M 273.683594 83.632812 L 238.605469 83.632812 L 238.605469 44.101562 L 348.628906 44.101562 L 348.628906 83.632812 L 313.523438 83.632812 L 313.523438 163.308594 L 273.683594 163.308594 Z M 273.683594 83.632812 " fill-opacity="1" fill-rule="nonzero"/></g><g clip-path="url(#d0db76dc1b)"><path fill="#000000" d="M 366.082031 44.101562 L 407.617188 44.101562 L 433.175781 85.988281 L 458.707031 44.101562 L 500.265625 44.101562 L 500.265625 163.308594 L 460.597656 163.308594 L 460.597656 104.222656 L 433.175781 146.605469 L 432.488281 146.605469 L 405.066406 104.222656 L 405.066406 163.308594 L 366.082031 163.308594 Z M 366.082031 44.101562 " fill-opacity="1" fill-rule="nonzero"/></g><g clip-path="url(#ab2dce5413)"><path fill="#000000" d="M 520.101562 44.101562 L 559.945312 44.101562 L 559.945312 123.90625 L 615.992188 123.90625 L 615.992188 163.308594 L 520.101562 163.308594 Z M 520.101562 44.101562 " fill-opacity="1" fill-rule="nonzero"/></g><path fill="#ffffff" d="M 359.75 585.585938 L 456.300781 585.585938 L 447.191406 687.269531 L 359.75 710.886719 L 359.75 792.4375 L 520.472656 747.90625 L 521.648438 734.648438 L 540.085938 528.238281 L 542 507.199219 L 359.75 507.199219 Z M 359.75 585.585938 " fill-opacity="1" fill-rule="nonzero"/><path fill="#ffffff" d="M 359.75 426.703125 L 359.75 426.898438 L 549.121094 426.898438 L 550.691406 409.273438 L 554.273438 369.527344 L 556.140625 348.488281 L 359.75 348.488281 Z M 359.75 426.703125 " fill-opacity="1" fill-rule="nonzero"/></svg>