<svg xmlns="http://www.w3.org/2000/svg" xmlns:xlink="http://www.w3.org/1999/xlink" width="960" zoomAndPan="magnify" viewBox="0 0 720 972.749988" height="1297" preserveAspectRatio="xMidYMid meet" version="1.0"><defs><clipPath id="7dc8557871"><path d="M 16 157 L 705.125 157 L 705.125 866 L 16 866 Z M 16 157 " clip-rule="nonzero"/></clipPath></defs><g clip-path="url(#7dc8557871)"><path fill="#ff914d" d="M 360.953125 865.90625 C 356.816406 865.929688 352.785156 865.289062 348.859375 863.992188 L 119.199219 787.441406 C 117.515625 786.878906 115.875 786.203125 114.285156 785.414062 C 112.695312 784.625 111.164062 783.726562 109.699219 782.726562 C 108.230469 781.722656 106.84375 780.625 105.527344 779.429688 C 104.214844 778.230469 102.992188 776.949219 101.855469 775.585938 C 100.71875 774.21875 99.6875 772.78125 98.75 771.269531 C 97.816406 769.757812 96.992188 768.191406 96.273438 766.566406 C 95.558594 764.941406 94.957031 763.273438 94.472656 761.5625 C 93.988281 759.855469 93.625 758.121094 93.382812 756.359375 L 16.828125 201.351562 C 16.640625 200 16.523438 198.644531 16.480469 197.28125 C 16.4375 195.917969 16.46875 194.554688 16.570312 193.195312 C 16.675781 191.832031 16.847656 190.484375 17.09375 189.140625 C 17.34375 187.800781 17.660156 186.472656 18.050781 185.167969 C 18.4375 183.859375 18.894531 182.574219 19.421875 181.316406 C 19.945312 180.058594 20.539062 178.828125 21.195312 177.632812 C 21.851562 176.4375 22.570312 175.28125 23.351562 174.164062 C 24.132812 173.042969 24.972656 171.96875 25.867188 170.941406 C 26.761719 169.910156 27.710938 168.933594 28.710938 168.003906 C 29.710938 167.078125 30.757812 166.207031 31.851562 165.390625 C 32.945312 164.574219 34.082031 163.820312 35.253906 163.125 C 36.429688 162.429688 37.636719 161.800781 38.878906 161.234375 C 40.121094 160.667969 41.386719 160.171875 42.683594 159.742188 C 43.976562 159.3125 45.292969 158.953125 46.625 158.664062 C 47.960938 158.375 49.304688 158.15625 50.660156 158.011719 C 52.015625 157.867188 53.378906 157.792969 54.742188 157.792969 L 667.164062 157.792969 C 668.527344 157.792969 669.886719 157.867188 671.242188 158.011719 C 672.597656 158.15625 673.941406 158.375 675.273438 158.664062 C 676.605469 158.953125 677.917969 159.3125 679.210938 159.742188 C 680.503906 160.171875 681.773438 160.667969 683.011719 161.230469 C 684.253906 161.796875 685.460938 162.425781 686.632812 163.117188 C 687.804688 163.8125 688.9375 164.566406 690.03125 165.378906 C 691.125 166.195312 692.171875 167.066406 693.171875 167.992188 C 694.171875 168.917969 695.117188 169.894531 696.015625 170.921875 C 696.910156 171.949219 697.75 173.023438 698.527344 174.140625 C 699.308594 175.253906 700.027344 176.410156 700.6875 177.605469 C 701.34375 178.800781 701.9375 180.023438 702.464844 181.28125 C 702.988281 182.539062 703.449219 183.820312 703.835938 185.125 C 704.226562 186.433594 704.546875 187.753906 704.792969 189.097656 C 705.042969 190.4375 705.21875 191.785156 705.324219 193.144531 C 705.425781 194.503906 705.460938 195.863281 705.417969 197.226562 C 705.375 198.589844 705.261719 199.945312 705.078125 201.296875 L 628.523438 756.304688 C 628.285156 758.066406 627.921875 759.800781 627.441406 761.515625 C 626.957031 763.226562 626.359375 764.894531 625.644531 766.523438 C 624.929688 768.152344 624.101562 769.722656 623.167969 771.238281 C 622.234375 772.75 621.199219 774.191406 620.066406 775.5625 C 618.929688 776.929688 617.703125 778.214844 616.390625 779.414062 C 615.078125 780.609375 613.6875 781.710938 612.21875 782.714844 C 610.75 783.722656 609.21875 784.617188 607.628906 785.410156 C 606.035156 786.203125 604.394531 786.878906 602.707031 787.441406 L 373.046875 863.992188 C 369.121094 865.289062 365.089844 865.929688 360.953125 865.90625 Z M 165.972656 722.371094 L 360.953125 787.289062 L 555.933594 722.21875 L 623.242188 234.347656 L 98.761719 234.347656 Z M 165.972656 722.371094 " fill-opacity="1" fill-rule="nonzero"/></g><path fill="#ff914d" d="M 303.539062 693.664062 C 297.511719 693.667969 291.800781 692.320312 286.410156 689.625 L 209.855469 651.347656 C 208.734375 650.789062 207.644531 650.175781 206.582031 649.507812 C 205.519531 648.839844 204.492188 648.121094 203.5 647.351562 C 202.507812 646.582031 201.558594 645.769531 200.648438 644.90625 C 199.734375 644.042969 198.867188 643.140625 198.046875 642.191406 C 197.222656 641.242188 196.449219 640.257812 195.726562 639.234375 C 195 638.210938 194.328125 637.15625 193.703125 636.066406 C 193.082031 634.976562 192.515625 633.859375 192.003906 632.714844 C 191.492188 631.566406 191.039062 630.398438 190.640625 629.210938 C 190.246094 628.019531 189.90625 626.8125 189.628906 625.589844 C 189.351562 624.367188 189.132812 623.132812 188.976562 621.886719 C 188.820312 620.644531 188.722656 619.394531 188.691406 618.140625 C 188.65625 616.886719 188.683594 615.632812 188.773438 614.382812 C 188.859375 613.132812 189.011719 611.886719 189.222656 610.652344 C 189.433594 609.414062 189.703125 608.191406 190.035156 606.980469 C 190.367188 605.769531 190.757812 604.582031 191.207031 603.410156 C 191.65625 602.238281 192.160156 601.089844 192.722656 599.96875 C 193.28125 598.847656 193.898438 597.753906 194.566406 596.695312 C 195.234375 595.632812 195.953125 594.605469 196.722656 593.617188 C 197.492188 592.625 198.308594 591.675781 199.171875 590.761719 C 200.035156 589.851562 200.941406 588.988281 201.886719 588.164062 C 202.835938 587.34375 203.820312 586.570312 204.847656 585.847656 C 205.871094 585.121094 206.925781 584.449219 208.015625 583.828125 C 209.105469 583.207031 210.226562 582.640625 211.371094 582.132812 C 212.515625 581.621094 213.683594 581.167969 214.875 580.769531 C 216.066406 580.375 217.273438 580.039062 218.496094 579.761719 C 219.71875 579.484375 220.953125 579.265625 222.199219 579.109375 C 223.441406 578.953125 224.691406 578.859375 225.945312 578.828125 C 227.199219 578.792969 228.453125 578.824219 229.703125 578.914062 C 230.957031 579.003906 232.199219 579.152344 233.433594 579.367188 C 234.671875 579.578125 235.894531 579.851562 237.105469 580.183594 C 238.3125 580.515625 239.503906 580.90625 240.675781 581.355469 C 241.847656 581.804688 242.992188 582.308594 244.113281 582.871094 L 265.261719 593.457031 L 265.261719 387.453125 L 188.710938 387.453125 C 187.457031 387.453125 186.207031 387.390625 184.957031 387.269531 C 183.710938 387.144531 182.472656 386.960938 181.242188 386.71875 C 180.011719 386.472656 178.796875 386.167969 177.597656 385.804688 C 176.398438 385.441406 175.21875 385.019531 174.0625 384.539062 C 172.902344 384.058594 171.773438 383.523438 170.667969 382.933594 C 169.558594 382.34375 168.488281 381.699219 167.445312 381 C 166.402344 380.304688 165.394531 379.558594 164.425781 378.765625 C 163.457031 377.96875 162.53125 377.128906 161.644531 376.242188 C 160.757812 375.355469 159.917969 374.425781 159.121094 373.457031 C 158.324219 372.488281 157.582031 371.484375 156.882812 370.441406 C 156.1875 369.398438 155.542969 368.324219 154.953125 367.21875 C 154.363281 366.113281 153.828125 364.980469 153.347656 363.824219 C 152.867188 362.664062 152.445312 361.488281 152.082031 360.289062 C 151.71875 359.085938 151.414062 357.871094 151.167969 356.644531 C 150.925781 355.414062 150.738281 354.175781 150.617188 352.929688 C 150.496094 351.679688 150.433594 350.429688 150.433594 349.175781 C 150.433594 347.921875 150.496094 346.671875 150.617188 345.425781 C 150.738281 344.175781 150.925781 342.9375 151.167969 341.707031 C 151.414062 340.480469 151.71875 339.265625 152.082031 338.066406 C 152.445312 336.867188 152.867188 335.6875 153.347656 334.527344 C 153.828125 333.371094 154.363281 332.238281 154.953125 331.132812 C 155.542969 330.027344 156.1875 328.953125 156.882812 327.910156 C 157.582031 326.867188 158.324219 325.863281 159.121094 324.894531 C 159.917969 323.925781 160.757812 322.996094 161.644531 322.109375 C 162.53125 321.222656 163.457031 320.382812 164.425781 319.589844 C 165.394531 318.792969 166.402344 318.046875 167.445312 317.351562 C 168.488281 316.652344 169.558594 316.011719 170.667969 315.417969 C 171.773438 314.828125 172.902344 314.292969 174.0625 313.8125 C 175.21875 313.332031 176.398438 312.910156 177.597656 312.546875 C 178.796875 312.183594 180.011719 311.878906 181.242188 311.636719 C 182.472656 311.390625 183.710938 311.207031 184.957031 311.085938 C 186.207031 310.960938 187.457031 310.898438 188.710938 310.898438 L 303.539062 310.898438 C 304.792969 310.898438 306.042969 310.960938 307.289062 311.085938 C 308.539062 311.207031 309.777344 311.390625 311.007812 311.636719 C 312.234375 311.878906 313.449219 312.183594 314.648438 312.546875 C 315.847656 312.910156 317.027344 313.332031 318.1875 313.8125 C 319.34375 314.292969 320.476562 314.828125 321.582031 315.417969 C 322.6875 316.011719 323.761719 316.652344 324.804688 317.351562 C 325.847656 318.046875 326.851562 318.792969 327.820312 319.589844 C 328.789062 320.382812 329.71875 321.222656 330.605469 322.109375 C 331.492188 322.996094 332.332031 323.925781 333.125 324.894531 C 333.921875 325.863281 334.667969 326.867188 335.363281 327.910156 C 336.0625 328.953125 336.703125 330.027344 337.296875 331.132812 C 337.886719 332.238281 338.421875 333.371094 338.902344 334.527344 C 339.382812 335.6875 339.804688 336.867188 340.167969 338.066406 C 340.53125 339.265625 340.835938 340.480469 341.078125 341.707031 C 341.324219 342.9375 341.507812 344.175781 341.628906 345.425781 C 341.753906 346.671875 341.816406 347.921875 341.816406 349.175781 L 341.816406 655.386719 C 341.816406 656.640625 341.753906 657.890625 341.628906 659.140625 C 341.507812 660.386719 341.324219 661.625 341.078125 662.855469 C 340.835938 664.085938 340.53125 665.296875 340.167969 666.5 C 339.804688 667.699219 339.382812 668.875 338.902344 670.035156 C 338.421875 671.191406 337.886719 672.324219 337.296875 673.429688 C 336.703125 674.535156 336.0625 675.609375 335.363281 676.652344 C 334.667969 677.695312 333.921875 678.699219 333.125 679.667969 C 332.332031 680.636719 331.492188 681.566406 330.605469 682.453125 C 329.71875 683.339844 328.789062 684.179688 327.820312 684.976562 C 326.851562 685.769531 325.847656 686.515625 324.804688 687.210938 C 323.761719 687.910156 322.6875 688.554688 321.582031 689.144531 C 320.476562 689.734375 319.34375 690.269531 318.1875 690.75 C 317.027344 691.230469 315.847656 691.652344 314.648438 692.015625 C 313.449219 692.378906 312.234375 692.683594 311.007812 692.929688 C 309.777344 693.171875 308.539062 693.355469 307.289062 693.480469 C 306.042969 693.601562 304.792969 693.664062 303.539062 693.664062 Z M 303.539062 693.664062 " fill-opacity="1" fill-rule="nonzero"/><path fill="#ff914d" d="M 418.367188 693.664062 C 417.210938 693.664062 416.058594 693.609375 414.910156 693.503906 C 413.757812 693.398438 412.617188 693.242188 411.480469 693.03125 C 410.34375 692.820312 409.21875 692.5625 408.109375 692.25 C 406.996094 691.941406 405.898438 691.578125 404.820312 691.167969 C 403.738281 690.761719 402.679688 690.300781 401.644531 689.796875 C 400.605469 689.289062 399.589844 688.738281 398.601562 688.140625 C 397.613281 687.542969 396.65625 686.902344 395.726562 686.21875 C 394.792969 685.53125 393.898438 684.808594 393.03125 684.042969 C 392.167969 683.277344 391.339844 682.472656 390.546875 681.632812 C 389.753906 680.789062 389.003906 679.914062 388.289062 679.007812 C 387.578125 678.097656 386.90625 677.160156 386.28125 676.1875 C 385.652344 675.21875 385.070312 674.222656 384.53125 673.203125 C 383.992188 672.179688 383.503906 671.132812 383.0625 670.066406 C 382.617188 669 382.222656 667.917969 381.878906 666.8125 C 381.535156 665.710938 381.238281 664.597656 380.996094 663.46875 C 380.753906 662.339844 380.558594 661.199219 380.417969 660.054688 C 380.277344 658.90625 380.191406 657.757812 380.152344 656.601562 C 380.117188 655.449219 380.132812 654.292969 380.199219 653.140625 C 380.265625 651.988281 380.386719 650.839844 380.558594 649.699219 C 380.730469 648.554688 380.953125 647.425781 381.226562 646.300781 C 381.5 645.179688 381.824219 644.074219 382.199219 642.980469 C 382.574219 641.886719 382.996094 640.8125 383.46875 639.757812 C 383.941406 638.707031 384.457031 637.675781 385.023438 636.667969 C 385.589844 635.660156 386.199219 634.679688 386.851562 633.726562 C 387.503906 632.773438 388.199219 631.855469 388.9375 630.964844 C 389.675781 630.074219 390.449219 629.222656 391.265625 628.402344 C 392.078125 627.582031 392.929688 626.800781 393.8125 626.058594 C 394.699219 625.316406 395.613281 624.617188 396.5625 623.957031 C 397.511719 623.296875 398.488281 622.683594 399.492188 622.113281 C 400.496094 621.542969 401.523438 621.015625 402.574219 620.539062 C 403.628906 620.0625 404.699219 619.632812 405.789062 619.25 C 406.878906 618.871094 407.984375 618.539062 409.105469 618.257812 L 460.777344 605.359375 L 469.90625 540.558594 L 437.507812 540.558594 C 435.625 540.558594 433.75 540.464844 431.878906 540.28125 C 430.007812 540.097656 428.148438 539.820312 426.304688 539.453125 C 424.460938 539.089844 422.640625 538.632812 420.839844 538.085938 C 419.039062 537.539062 417.273438 536.90625 415.535156 536.1875 C 413.796875 535.46875 412.097656 534.664062 410.441406 533.777344 C 408.78125 532.890625 407.171875 531.925781 405.609375 530.882812 C 404.042969 529.835938 402.535156 528.71875 401.082031 527.527344 C 399.628906 526.332031 398.238281 525.070312 396.90625 523.742188 C 395.578125 522.410156 394.316406 521.019531 393.125 519.566406 C 391.929688 518.113281 390.8125 516.605469 389.765625 515.042969 C 388.722656 513.476562 387.757812 511.867188 386.871094 510.207031 C 385.984375 508.550781 385.179688 506.851562 384.460938 505.113281 C 383.742188 503.378906 383.109375 501.609375 382.5625 499.808594 C 382.019531 498.011719 381.5625 496.1875 381.195312 494.34375 C 380.828125 492.5 380.550781 490.640625 380.367188 488.769531 C 380.183594 486.898438 380.089844 485.023438 380.089844 483.144531 L 380.089844 368.3125 C 380.089844 366.433594 380.183594 364.558594 380.367188 362.6875 C 380.550781 360.816406 380.828125 358.957031 381.195312 357.113281 C 381.5625 355.269531 382.019531 353.445312 382.5625 351.648438 C 383.109375 349.847656 383.742188 348.078125 384.460938 346.34375 C 385.179688 344.605469 385.984375 342.90625 386.871094 341.25 C 387.757812 339.589844 388.722656 337.980469 389.765625 336.417969 C 390.8125 334.851562 391.929688 333.34375 393.125 331.890625 C 394.316406 330.4375 395.578125 329.046875 396.90625 327.714844 C 398.238281 326.386719 399.628906 325.125 401.082031 323.933594 C 402.535156 322.738281 404.042969 321.621094 405.609375 320.574219 C 407.171875 319.53125 408.78125 318.566406 410.441406 317.679688 C 412.097656 316.792969 413.796875 315.988281 415.535156 315.269531 C 417.273438 314.550781 419.039062 313.917969 420.839844 313.371094 C 422.640625 312.824219 424.460938 312.371094 426.304688 312.003906 C 428.148438 311.636719 430.007812 311.359375 431.878906 311.175781 C 433.75 310.992188 435.625 310.898438 437.507812 310.898438 L 533.195312 310.898438 C 534.449219 310.898438 535.699219 310.960938 536.949219 311.085938 C 538.195312 311.207031 539.433594 311.390625 540.664062 311.636719 C 541.894531 311.878906 543.109375 312.183594 544.308594 312.546875 C 545.507812 312.910156 546.6875 313.332031 547.84375 313.8125 C 549.003906 314.292969 550.132812 314.828125 551.242188 315.417969 C 552.347656 316.011719 553.417969 316.652344 554.460938 317.351562 C 555.503906 318.046875 556.511719 318.792969 557.480469 319.589844 C 558.449219 320.382812 559.375 321.222656 560.261719 322.109375 C 561.148438 322.996094 561.988281 323.925781 562.785156 324.894531 C 563.582031 325.863281 564.324219 326.867188 565.023438 327.910156 C 565.71875 328.953125 566.363281 330.027344 566.953125 331.132812 C 567.542969 332.238281 568.078125 333.371094 568.558594 334.527344 C 569.039062 335.6875 569.460938 336.867188 569.824219 338.066406 C 570.1875 339.265625 570.492188 340.480469 570.738281 341.707031 C 570.984375 342.9375 571.167969 344.175781 571.289062 345.425781 C 571.410156 346.671875 571.472656 347.921875 571.472656 349.175781 C 571.472656 350.429688 571.410156 351.679688 571.289062 352.929688 C 571.167969 354.175781 570.984375 355.414062 570.738281 356.644531 C 570.492188 357.871094 570.1875 359.085938 569.824219 360.289062 C 569.460938 361.488281 569.039062 362.664062 568.558594 363.824219 C 568.078125 364.980469 567.542969 366.113281 566.953125 367.21875 C 566.363281 368.324219 565.71875 369.398438 565.023438 370.441406 C 564.324219 371.484375 563.582031 372.488281 562.785156 373.457031 C 561.988281 374.425781 561.148438 375.355469 560.261719 376.242188 C 559.375 377.128906 558.449219 377.96875 557.480469 378.765625 C 556.511719 379.558594 555.503906 380.304688 554.460938 381 C 553.417969 381.699219 552.347656 382.34375 551.242188 382.933594 C 550.132812 383.523438 549.003906 384.058594 547.84375 384.539062 C 546.6875 385.019531 545.507812 385.441406 544.308594 385.804688 C 543.109375 386.167969 541.894531 386.472656 540.664062 386.71875 C 539.433594 386.960938 538.195312 387.144531 536.949219 387.269531 C 535.699219 387.390625 534.449219 387.453125 533.195312 387.453125 L 456.644531 387.453125 L 456.644531 464.003906 L 491.972656 464.003906 C 493.855469 464.003906 495.730469 464.097656 497.601562 464.28125 C 499.472656 464.464844 501.328125 464.742188 503.175781 465.109375 C 505.019531 465.476562 506.839844 465.933594 508.640625 466.476562 C 510.4375 467.023438 512.207031 467.65625 513.945312 468.375 C 515.683594 469.09375 517.378906 469.898438 519.039062 470.785156 C 520.695312 471.671875 522.308594 472.636719 523.871094 473.679688 C 525.433594 474.726562 526.941406 475.84375 528.398438 477.039062 C 529.851562 478.230469 531.242188 479.492188 532.570312 480.820312 C 533.902344 482.152344 535.164062 483.542969 536.355469 484.996094 C 537.546875 486.449219 538.667969 487.957031 539.710938 489.523438 C 540.757812 491.085938 541.722656 492.695312 542.609375 494.355469 C 543.496094 496.011719 544.296875 497.710938 545.015625 499.449219 C 545.738281 501.183594 546.371094 502.953125 546.914062 504.753906 C 547.460938 506.550781 547.917969 508.375 548.285156 510.21875 C 548.652344 512.0625 548.925781 513.921875 549.113281 515.792969 C 549.296875 517.664062 549.386719 519.539062 549.386719 521.417969 C 549.386719 524.191406 549.179688 526.945312 548.777344 529.6875 L 532.8125 641.644531 C 532.546875 643.519531 532.144531 645.363281 531.601562 647.175781 C 531.0625 648.988281 530.390625 650.753906 529.589844 652.464844 C 528.789062 654.179688 527.863281 655.824219 526.816406 657.402344 C 525.769531 658.980469 524.613281 660.46875 523.347656 661.875 C 522.082031 663.28125 520.71875 664.585938 519.257812 665.789062 C 517.796875 666.992188 516.253906 668.078125 514.632812 669.054688 C 513.011719 670.027344 511.324219 670.878906 509.578125 671.601562 C 507.828125 672.328125 506.039062 672.917969 504.203125 673.378906 L 427.648438 692.515625 C 424.601562 693.28125 421.507812 693.664062 418.367188 693.664062 Z M 473.046875 518.703125 Z M 473.046875 518.703125 " fill-opacity="1" fill-rule="nonzero"/></svg>