<svg xmlns="http://www.w3.org/2000/svg" xmlns:xlink="http://www.w3.org/1999/xlink" width="960" zoomAndPan="magnify" viewBox="0 0 720 972.749988" height="1297" preserveAspectRatio="xMidYMid meet" version="1.0"><defs><clipPath id="6933153f2f"><path d="M 20.515625 290.179688 L 699.839844 290.179688 L 699.839844 647.835938 L 20.515625 647.835938 Z M 20.515625 290.179688 " clip-rule="nonzero"/></clipPath><clipPath id="789cdecdac"><path d="M 699.839844 469.007812 C 699.839844 471.925781 699.707031 474.84375 699.433594 477.757812 C 699.160156 480.671875 698.75 483.582031 698.207031 486.488281 C 697.660156 489.390625 696.980469 492.285156 696.164062 495.171875 C 695.351562 498.058594 694.398438 500.933594 693.316406 503.796875 C 692.230469 506.660156 691.011719 509.507812 689.664062 512.335938 C 688.3125 515.167969 686.828125 517.980469 685.214844 520.773438 C 683.601562 523.566406 681.859375 526.335938 679.988281 529.082031 C 678.113281 531.832031 676.113281 534.554688 673.988281 537.25 C 671.859375 539.945312 669.605469 542.613281 667.230469 545.25 C 664.855469 547.890625 662.355469 550.496094 659.734375 553.070312 C 657.113281 555.644531 654.375 558.179688 651.515625 560.683594 C 648.660156 563.1875 645.6875 565.652344 642.597656 568.078125 C 639.511719 570.503906 636.308594 572.890625 633 575.234375 C 629.6875 577.578125 626.269531 579.878906 622.742188 582.136719 C 619.214844 584.390625 615.585938 586.601562 611.851562 588.761719 C 608.121094 590.925781 604.289062 593.039062 600.355469 595.101562 C 596.425781 597.164062 592.402344 599.175781 588.28125 601.136719 C 584.164062 603.097656 579.957031 605.003906 575.660156 606.855469 C 571.363281 608.707031 566.980469 610.5 562.515625 612.238281 C 558.050781 613.976562 553.507812 615.65625 548.886719 617.277344 C 544.261719 618.898438 539.570312 620.460938 534.800781 621.960938 C 530.03125 623.460938 525.199219 624.898438 520.296875 626.273438 C 515.390625 627.652344 510.429688 628.960938 505.402344 630.210938 C 500.378906 631.457031 495.296875 632.640625 490.164062 633.757812 C 485.027344 634.875 479.84375 635.925781 474.609375 636.90625 C 469.375 637.890625 464.097656 638.804688 458.777344 639.652344 C 453.457031 640.5 448.101562 641.277344 442.710938 641.988281 C 437.316406 642.695312 431.894531 643.335938 426.445312 643.90625 C 420.992188 644.472656 415.515625 644.972656 410.019531 645.402344 C 404.519531 645.828125 399.003906 646.1875 393.472656 646.472656 C 387.941406 646.757812 382.398438 646.972656 376.84375 647.117188 C 371.292969 647.261719 365.738281 647.332031 360.179688 647.332031 C 354.621094 647.332031 349.066406 647.261719 343.511719 647.117188 C 337.960938 646.972656 332.417969 646.757812 326.886719 646.472656 C 321.355469 646.1875 315.839844 645.828125 310.339844 645.402344 C 304.839844 644.972656 299.367188 644.472656 293.914062 643.90625 C 288.460938 643.335938 283.039062 642.695312 277.648438 641.988281 C 272.253906 641.277344 266.898438 640.5 261.582031 639.652344 C 256.261719 638.804688 250.984375 637.890625 245.75 636.90625 C 240.515625 635.925781 235.332031 634.875 230.195312 633.757812 C 225.058594 632.640625 219.980469 631.457031 214.953125 630.210938 C 209.929688 628.960938 204.964844 627.652344 200.0625 626.273438 C 195.160156 624.898438 190.324219 623.460938 185.558594 621.960938 C 180.789062 620.460938 176.09375 618.898438 171.472656 617.277344 C 166.851562 615.65625 162.308594 613.976562 157.84375 612.238281 C 153.378906 610.5 148.996094 608.707031 144.699219 606.855469 C 140.402344 605.003906 136.195312 603.097656 132.074219 601.136719 C 127.957031 599.175781 123.933594 597.164062 120 595.101562 C 116.070312 593.039062 112.238281 590.925781 108.503906 588.761719 C 104.773438 586.601562 101.144531 584.390625 97.617188 582.136719 C 94.089844 579.878906 90.671875 577.578125 87.359375 575.234375 C 84.046875 572.890625 80.847656 570.503906 77.761719 568.078125 C 74.671875 565.652344 71.699219 563.1875 68.839844 560.683594 C 65.984375 558.179688 63.242188 555.644531 60.625 553.070312 C 58.003906 550.496094 55.503906 547.890625 53.128906 545.25 C 50.75 542.613281 48.5 539.945312 46.371094 537.25 C 44.246094 534.554688 42.246094 531.832031 40.371094 529.082031 C 38.5 526.335938 36.753906 523.566406 35.140625 520.773438 C 33.527344 517.980469 32.046875 515.167969 30.695312 512.335938 C 29.34375 509.507812 28.128906 506.660156 27.042969 503.796875 C 25.957031 500.933594 25.007812 498.058594 24.191406 495.171875 C 23.378906 492.285156 22.695312 489.390625 22.152344 486.488281 C 21.605469 483.582031 21.199219 480.671875 20.925781 477.757812 C 20.652344 474.84375 20.515625 471.925781 20.515625 469.007812 C 20.515625 466.089844 20.652344 463.171875 20.925781 460.257812 C 21.199219 457.34375 21.605469 454.433594 22.152344 451.53125 C 22.695312 448.625 23.378906 445.730469 24.191406 442.84375 C 25.007812 439.957031 25.957031 437.082031 27.042969 434.21875 C 28.128906 431.355469 29.34375 428.511719 30.695312 425.679688 C 32.046875 422.847656 33.527344 420.035156 35.140625 417.242188 C 36.753906 414.449219 38.5 411.679688 40.371094 408.933594 C 42.246094 406.183594 44.246094 403.460938 46.371094 400.765625 C 48.5 398.070312 50.75 395.402344 53.128906 392.765625 C 55.503906 390.125 58.003906 387.519531 60.625 384.945312 C 63.242188 382.375 65.984375 379.835938 68.839844 377.332031 C 71.699219 374.828125 74.671875 372.363281 77.761719 369.9375 C 80.847656 367.511719 84.046875 365.125 87.359375 362.78125 C 90.671875 360.4375 94.089844 358.136719 97.617188 355.882812 C 101.144531 353.625 104.773438 351.414062 108.503906 349.253906 C 112.238281 347.089844 116.070312 344.976562 120 342.914062 C 123.933594 340.851562 127.957031 338.839844 132.074219 336.878906 C 136.195312 334.917969 140.402344 333.011719 144.699219 331.164062 C 148.996094 329.3125 153.378906 327.515625 157.84375 325.777344 C 162.308594 324.039062 166.851562 322.359375 171.472656 320.738281 C 176.09375 319.117188 180.789062 317.554688 185.558594 316.054688 C 190.324219 314.554688 195.160156 313.117188 200.0625 311.742188 C 204.964844 310.363281 209.929688 309.054688 214.953125 307.804688 C 219.980469 306.558594 225.058594 305.375 230.195312 304.257812 C 235.332031 303.140625 240.515625 302.09375 245.75 301.109375 C 250.984375 300.125 256.261719 299.210938 261.582031 298.363281 C 266.898438 297.515625 272.253906 296.738281 277.648438 296.027344 C 283.039062 295.320312 288.460938 294.679688 293.914062 294.109375 C 299.367188 293.542969 304.839844 293.042969 310.339844 292.613281 C 315.839844 292.1875 321.355469 291.828125 326.886719 291.542969 C 332.417969 291.257812 337.960938 291.042969 343.511719 290.898438 C 349.066406 290.757812 354.621094 290.683594 360.179688 290.683594 C 365.738281 290.683594 371.292969 290.757812 376.84375 290.898438 C 382.398438 291.042969 387.941406 291.257812 393.472656 291.542969 C 399.003906 291.828125 404.519531 292.1875 410.019531 292.613281 C 415.515625 293.042969 420.992188 293.542969 426.445312 294.109375 C 431.894531 294.679688 437.316406 295.320312 442.710938 296.027344 C 448.101562 296.738281 453.457031 297.515625 458.777344 298.363281 C 464.097656 299.210938 469.375 300.125 474.609375 301.109375 C 479.84375 302.09375 485.027344 303.140625 490.164062 304.257812 C 495.296875 305.375 500.378906 306.558594 505.402344 307.804688 C 510.429688 309.054688 515.390625 310.363281 520.296875 311.742188 C 525.199219 313.117188 530.03125 314.554688 534.800781 316.054688 C 539.570312 317.554688 544.261719 319.117188 548.886719 320.738281 C 553.507812 322.359375 558.050781 324.039062 562.515625 325.777344 C 566.980469 327.515625 571.363281 329.3125 575.660156 331.164062 C 579.957031 333.011719 584.164062 334.917969 588.28125 336.878906 C 592.402344 338.839844 596.425781 340.851562 600.355469 342.914062 C 604.289062 344.976562 608.121094 347.089844 611.851562 349.253906 C 615.585938 351.414062 619.214844 353.625 622.742188 355.882812 C 626.269531 358.136719 629.6875 360.4375 633 362.78125 C 636.308594 365.125 639.511719 367.511719 642.597656 369.9375 C 645.6875 372.363281 648.660156 374.828125 651.515625 377.332031 C 654.375 379.835938 657.113281 382.375 659.734375 384.945312 C 662.355469 387.519531 664.855469 390.125 667.230469 392.765625 C 669.605469 395.402344 671.859375 398.070312 673.988281 400.765625 C 676.113281 403.460938 678.113281 406.183594 679.988281 408.933594 C 681.859375 411.679688 683.601562 414.449219 685.214844 417.242188 C 686.828125 420.035156 688.3125 422.847656 689.664062 425.679688 C 691.011719 428.511719 692.230469 431.355469 693.316406 434.21875 C 694.398438 437.082031 695.351562 439.957031 696.164062 442.84375 C 696.980469 445.730469 697.660156 448.625 698.207031 451.53125 C 698.75 454.433594 699.160156 457.34375 699.433594 460.257812 C 699.707031 463.171875 699.839844 466.089844 699.839844 469.007812 Z M 699.839844 469.007812 " clip-rule="nonzero"/></clipPath><radialGradient gradientTransform="matrix(1.000742, 0, 0, 0.999258, 223.422413, 507.741043)" gradientUnits="userSpaceOnUse" r="445.733305" cx="1.027104" id="e13fc7a46e" cy="-154.458509" fx="1.027104" fy="-154.458509"><stop stop-opacity="1" stop-color="rgb(99.725342%, 99.772644%, 99.839783%)" offset="0"/><stop stop-opacity="1" stop-color="rgb(99.176025%, 99.317932%, 99.520874%)" offset="0.00390625"/><stop stop-opacity="1" stop-color="rgb(98.628235%, 98.864746%, 99.201965%)" offset="0.0078125"/><stop stop-opacity="1" stop-color="rgb(98.078918%, 98.41156%, 98.883057%)" offset="0.0117188"/><stop stop-opacity="1" stop-color="rgb(97.531128%, 97.958374%, 98.565674%)" offset="0.015625"/><stop stop-opacity="1" stop-color="rgb(96.981812%, 97.505188%, 98.246765%)" offset="0.0195312"/><stop stop-opacity="1" stop-color="rgb(96.434021%, 97.052002%, 97.927856%)" offset="0.0234375"/><stop stop-opacity="1" stop-color="rgb(95.88623%, 96.59729%, 97.608948%)" offset="0.0273438"/><stop stop-opacity="1" stop-color="rgb(95.336914%, 96.144104%, 97.290039%)" offset="0.03125"/><stop stop-opacity="1" stop-color="rgb(94.789124%, 95.690918%, 96.972656%)" offset="0.0351562"/><stop stop-opacity="1" stop-color="rgb(94.239807%, 95.237732%, 96.653748%)" offset="0.0390625"/><stop stop-opacity="1" stop-color="rgb(93.692017%, 94.784546%, 96.334839%)" offset="0.0429688"/><stop stop-opacity="1" stop-color="rgb(93.1427%, 94.33136%, 96.01593%)" offset="0.046875"/><stop stop-opacity="1" stop-color="rgb(92.59491%, 93.876648%, 95.697021%)" offset="0.0507812"/><stop stop-opacity="1" stop-color="rgb(92.047119%, 93.423462%, 95.379639%)" offset="0.0546875"/><stop stop-opacity="1" stop-color="rgb(91.497803%, 92.970276%, 95.06073%)" offset="0.0585938"/><stop stop-opacity="1" stop-color="rgb(90.950012%, 92.51709%, 94.741821%)" offset="0.0625"/><stop stop-opacity="1" stop-color="rgb(90.400696%, 92.063904%, 94.422913%)" offset="0.0664062"/><stop stop-opacity="1" stop-color="rgb(89.852905%, 91.610718%, 94.104004%)" offset="0.0703125"/><stop stop-opacity="1" stop-color="rgb(89.303589%, 91.156006%, 93.786621%)" offset="0.0742188"/><stop stop-opacity="1" stop-color="rgb(88.755798%, 90.70282%, 93.467712%)" offset="0.078125"/><stop stop-opacity="1" stop-color="rgb(88.208008%, 90.249634%, 93.148804%)" offset="0.0820312"/><stop stop-opacity="1" stop-color="rgb(87.658691%, 89.796448%, 92.829895%)" offset="0.0859375"/><stop stop-opacity="1" stop-color="rgb(87.110901%, 89.343262%, 92.510986%)" offset="0.0898438"/><stop stop-opacity="1" stop-color="rgb(86.561584%, 88.890076%, 92.193604%)" offset="0.09375"/><stop stop-opacity="1" stop-color="rgb(86.013794%, 88.435364%, 91.874695%)" offset="0.0976562"/><stop stop-opacity="1" stop-color="rgb(85.464478%, 87.982178%, 91.555786%)" offset="0.101562"/><stop stop-opacity="1" stop-color="rgb(84.916687%, 87.528992%, 91.236877%)" offset="0.105469"/><stop stop-opacity="1" stop-color="rgb(84.368896%, 87.075806%, 90.917969%)" offset="0.109375"/><stop stop-opacity="1" stop-color="rgb(83.81958%, 86.62262%, 90.600586%)" offset="0.113281"/><stop stop-opacity="1" stop-color="rgb(83.27179%, 86.169434%, 90.281677%)" offset="0.117188"/><stop stop-opacity="1" stop-color="rgb(82.722473%, 85.714722%, 89.962769%)" offset="0.121094"/><stop stop-opacity="1" stop-color="rgb(82.174683%, 85.261536%, 89.64386%)" offset="0.125"/><stop stop-opacity="1" stop-color="rgb(81.626892%, 84.80835%, 89.326477%)" offset="0.128906"/><stop stop-opacity="1" stop-color="rgb(81.077576%, 84.355164%, 89.007568%)" offset="0.132812"/><stop stop-opacity="1" stop-color="rgb(80.529785%, 83.901978%, 88.68866%)" offset="0.136719"/><stop stop-opacity="1" stop-color="rgb(79.980469%, 83.448792%, 88.369751%)" offset="0.140625"/><stop stop-opacity="1" stop-color="rgb(79.432678%, 82.99408%, 88.050842%)" offset="0.144531"/><stop stop-opacity="1" stop-color="rgb(78.883362%, 82.540894%, 87.733459%)" offset="0.148438"/><stop stop-opacity="1" stop-color="rgb(78.335571%, 82.087708%, 87.414551%)" offset="0.152344"/><stop stop-opacity="1" stop-color="rgb(77.787781%, 81.634521%, 87.095642%)" offset="0.15625"/><stop stop-opacity="1" stop-color="rgb(77.238464%, 81.181335%, 86.776733%)" offset="0.160156"/><stop stop-opacity="1" stop-color="rgb(76.690674%, 80.728149%, 86.457825%)" offset="0.164062"/><stop stop-opacity="1" stop-color="rgb(76.141357%, 80.273438%, 86.140442%)" offset="0.167969"/><stop stop-opacity="1" stop-color="rgb(75.593567%, 79.820251%, 85.821533%)" offset="0.171875"/><stop stop-opacity="1" stop-color="rgb(75.04425%, 79.367065%, 85.502625%)" offset="0.175781"/><stop stop-opacity="1" stop-color="rgb(74.49646%, 78.913879%, 85.183716%)" offset="0.179688"/><stop stop-opacity="1" stop-color="rgb(73.948669%, 78.460693%, 84.864807%)" offset="0.183594"/><stop stop-opacity="1" stop-color="rgb(73.399353%, 78.007507%, 84.547424%)" offset="0.1875"/><stop stop-opacity="1" stop-color="rgb(72.851562%, 77.552795%, 84.228516%)" offset="0.191406"/><stop stop-opacity="1" stop-color="rgb(72.302246%, 77.099609%, 83.909607%)" offset="0.195312"/><stop stop-opacity="1" stop-color="rgb(71.754456%, 76.646423%, 83.590698%)" offset="0.199219"/><stop stop-opacity="1" stop-color="rgb(71.205139%, 76.193237%, 83.27179%)" offset="0.203125"/><stop stop-opacity="1" stop-color="rgb(70.657349%, 75.740051%, 82.954407%)" offset="0.207031"/><stop stop-opacity="1" stop-color="rgb(70.109558%, 75.286865%, 82.635498%)" offset="0.210938"/><stop stop-opacity="1" stop-color="rgb(69.560242%, 74.832153%, 82.316589%)" offset="0.214844"/><stop stop-opacity="1" stop-color="rgb(69.012451%, 74.378967%, 81.997681%)" offset="0.21875"/><stop stop-opacity="1" stop-color="rgb(68.463135%, 73.925781%, 81.678772%)" offset="0.222656"/><stop stop-opacity="1" stop-color="rgb(67.915344%, 73.472595%, 81.361389%)" offset="0.226562"/><stop stop-opacity="1" stop-color="rgb(67.366028%, 73.019409%, 81.04248%)" offset="0.230469"/><stop stop-opacity="1" stop-color="rgb(66.818237%, 72.566223%, 80.723572%)" offset="0.234375"/><stop stop-opacity="1" stop-color="rgb(66.270447%, 72.111511%, 80.404663%)" offset="0.238281"/><stop stop-opacity="1" stop-color="rgb(65.72113%, 71.658325%, 80.08728%)" offset="0.242188"/><stop stop-opacity="1" stop-color="rgb(65.17334%, 71.205139%, 79.768372%)" offset="0.246094"/><stop stop-opacity="1" stop-color="rgb(64.624023%, 70.751953%, 79.449463%)" offset="0.25"/><stop stop-opacity="1" stop-color="rgb(64.076233%, 70.298767%, 79.130554%)" offset="0.253906"/><stop stop-opacity="1" stop-color="rgb(63.528442%, 69.845581%, 78.811646%)" offset="0.257812"/><stop stop-opacity="1" stop-color="rgb(62.979126%, 69.390869%, 78.494263%)" offset="0.261719"/><stop stop-opacity="1" stop-color="rgb(62.431335%, 68.937683%, 78.175354%)" offset="0.265625"/><stop stop-opacity="1" stop-color="rgb(61.882019%, 68.484497%, 77.856445%)" offset="0.269531"/><stop stop-opacity="1" stop-color="rgb(61.334229%, 68.031311%, 77.537537%)" offset="0.273438"/><stop stop-opacity="1" stop-color="rgb(60.784912%, 67.578125%, 77.218628%)" offset="0.277344"/><stop stop-opacity="1" stop-color="rgb(60.237122%, 67.124939%, 76.901245%)" offset="0.28125"/><stop stop-opacity="1" stop-color="rgb(59.689331%, 66.670227%, 76.582336%)" offset="0.285156"/><stop stop-opacity="1" stop-color="rgb(59.140015%, 66.217041%, 76.263428%)" offset="0.289062"/><stop stop-opacity="1" stop-color="rgb(58.592224%, 65.763855%, 75.944519%)" offset="0.292969"/><stop stop-opacity="1" stop-color="rgb(58.042908%, 65.310669%, 75.62561%)" offset="0.296875"/><stop stop-opacity="1" stop-color="rgb(57.495117%, 64.857483%, 75.308228%)" offset="0.300781"/><stop stop-opacity="1" stop-color="rgb(56.945801%, 64.404297%, 74.989319%)" offset="0.304688"/><stop stop-opacity="1" stop-color="rgb(56.39801%, 63.949585%, 74.67041%)" offset="0.308594"/><stop stop-opacity="1" stop-color="rgb(55.85022%, 63.496399%, 74.351501%)" offset="0.3125"/><stop stop-opacity="1" stop-color="rgb(55.300903%, 63.043213%, 74.032593%)" offset="0.316406"/><stop stop-opacity="1" stop-color="rgb(54.753113%, 62.590027%, 73.71521%)" offset="0.320312"/><stop stop-opacity="1" stop-color="rgb(54.203796%, 62.136841%, 73.396301%)" offset="0.324219"/><stop stop-opacity="1" stop-color="rgb(53.656006%, 61.683655%, 73.077393%)" offset="0.328125"/><stop stop-opacity="1" stop-color="rgb(53.106689%, 61.228943%, 72.758484%)" offset="0.332031"/><stop stop-opacity="1" stop-color="rgb(52.558899%, 60.775757%, 72.439575%)" offset="0.335938"/><stop stop-opacity="1" stop-color="rgb(52.011108%, 60.322571%, 72.122192%)" offset="0.339844"/><stop stop-opacity="1" stop-color="rgb(51.461792%, 59.869385%, 71.803284%)" offset="0.34375"/><stop stop-opacity="1" stop-color="rgb(50.914001%, 59.416199%, 71.484375%)" offset="0.347656"/><stop stop-opacity="1" stop-color="rgb(50.364685%, 58.963013%, 71.165466%)" offset="0.351562"/><stop stop-opacity="1" stop-color="rgb(49.816895%, 58.509827%, 70.846558%)" offset="0.355469"/><stop stop-opacity="1" stop-color="rgb(49.267578%, 58.055115%, 70.529175%)" offset="0.359375"/><stop stop-opacity="1" stop-color="rgb(48.719788%, 57.601929%, 70.210266%)" offset="0.363281"/><stop stop-opacity="1" stop-color="rgb(48.171997%, 57.148743%, 69.891357%)" offset="0.367188"/><stop stop-opacity="1" stop-color="rgb(47.622681%, 56.695557%, 69.572449%)" offset="0.371094"/><stop stop-opacity="1" stop-color="rgb(47.07489%, 56.242371%, 69.255066%)" offset="0.375"/><stop stop-opacity="1" stop-color="rgb(46.525574%, 55.789185%, 68.936157%)" offset="0.378906"/><stop stop-opacity="1" stop-color="rgb(45.977783%, 55.334473%, 68.617249%)" offset="0.382812"/><stop stop-opacity="1" stop-color="rgb(45.429993%, 54.881287%, 68.29834%)" offset="0.386719"/><stop stop-opacity="1" stop-color="rgb(44.880676%, 54.428101%, 67.979431%)" offset="0.390625"/><stop stop-opacity="1" stop-color="rgb(44.332886%, 53.974915%, 67.662048%)" offset="0.394531"/><stop stop-opacity="1" stop-color="rgb(43.783569%, 53.521729%, 67.34314%)" offset="0.398438"/><stop stop-opacity="1" stop-color="rgb(43.235779%, 53.068542%, 67.024231%)" offset="0.402344"/><stop stop-opacity="1" stop-color="rgb(42.686462%, 52.613831%, 66.705322%)" offset="0.40625"/><stop stop-opacity="1" stop-color="rgb(42.138672%, 52.160645%, 66.386414%)" offset="0.410156"/><stop stop-opacity="1" stop-color="rgb(41.590881%, 51.707458%, 66.069031%)" offset="0.414062"/><stop stop-opacity="1" stop-color="rgb(41.041565%, 51.254272%, 65.750122%)" offset="0.417969"/><stop stop-opacity="1" stop-color="rgb(40.493774%, 50.801086%, 65.431213%)" offset="0.421875"/><stop stop-opacity="1" stop-color="rgb(39.944458%, 50.3479%, 65.112305%)" offset="0.425781"/><stop stop-opacity="1" stop-color="rgb(39.396667%, 49.893188%, 64.793396%)" offset="0.429688"/><stop stop-opacity="1" stop-color="rgb(38.847351%, 49.440002%, 64.476013%)" offset="0.433594"/><stop stop-opacity="1" stop-color="rgb(38.299561%, 48.986816%, 64.157104%)" offset="0.4375"/><stop stop-opacity="1" stop-color="rgb(37.75177%, 48.53363%, 63.838196%)" offset="0.441406"/><stop stop-opacity="1" stop-color="rgb(37.202454%, 48.080444%, 63.519287%)" offset="0.445312"/><stop stop-opacity="1" stop-color="rgb(36.654663%, 47.627258%, 63.200378%)" offset="0.449219"/><stop stop-opacity="1" stop-color="rgb(36.105347%, 47.172546%, 62.882996%)" offset="0.453125"/><stop stop-opacity="1" stop-color="rgb(35.557556%, 46.71936%, 62.564087%)" offset="0.457031"/><stop stop-opacity="1" stop-color="rgb(35.00824%, 46.266174%, 62.245178%)" offset="0.460938"/><stop stop-opacity="1" stop-color="rgb(34.460449%, 45.812988%, 61.92627%)" offset="0.464844"/><stop stop-opacity="1" stop-color="rgb(33.912659%, 45.359802%, 61.607361%)" offset="0.46875"/><stop stop-opacity="1" stop-color="rgb(33.363342%, 44.906616%, 61.289978%)" offset="0.472656"/><stop stop-opacity="1" stop-color="rgb(32.815552%, 44.451904%, 60.971069%)" offset="0.476562"/><stop stop-opacity="1" stop-color="rgb(32.266235%, 43.998718%, 60.652161%)" offset="0.480469"/><stop stop-opacity="1" stop-color="rgb(31.718445%, 43.545532%, 60.333252%)" offset="0.484375"/><stop stop-opacity="1" stop-color="rgb(31.170654%, 43.092346%, 60.015869%)" offset="0.488281"/><stop stop-opacity="1" stop-color="rgb(30.621338%, 42.63916%, 59.69696%)" offset="0.492188"/><stop stop-opacity="1" stop-color="rgb(30.073547%, 42.185974%, 59.378052%)" offset="0.496094"/><stop stop-opacity="1" stop-color="rgb(29.736328%, 41.842651%, 59.036255%)" offset="0.5"/><stop stop-opacity="1" stop-color="rgb(29.611206%, 41.609192%, 58.67157%)" offset="0.503906"/><stop stop-opacity="1" stop-color="rgb(29.484558%, 41.377258%, 58.306885%)" offset="0.507812"/><stop stop-opacity="1" stop-color="rgb(29.359436%, 41.143799%, 57.9422%)" offset="0.511719"/><stop stop-opacity="1" stop-color="rgb(29.234314%, 40.911865%, 57.577515%)" offset="0.515625"/><stop stop-opacity="1" stop-color="rgb(29.109192%, 40.678406%, 57.21283%)" offset="0.519531"/><stop stop-opacity="1" stop-color="rgb(28.982544%, 40.444946%, 56.848145%)" offset="0.523438"/><stop stop-opacity="1" stop-color="rgb(28.857422%, 40.213013%, 56.483459%)" offset="0.527344"/><stop stop-opacity="1" stop-color="rgb(28.7323%, 39.979553%, 56.118774%)" offset="0.53125"/><stop stop-opacity="1" stop-color="rgb(28.605652%, 39.74762%, 55.754089%)" offset="0.535156"/><stop stop-opacity="1" stop-color="rgb(28.48053%, 39.51416%, 55.389404%)" offset="0.539062"/><stop stop-opacity="1" stop-color="rgb(28.355408%, 39.280701%, 55.026245%)" offset="0.542969"/><stop stop-opacity="1" stop-color="rgb(28.230286%, 39.048767%, 54.66156%)" offset="0.546875"/><stop stop-opacity="1" stop-color="rgb(28.103638%, 38.815308%, 54.296875%)" offset="0.550781"/><stop stop-opacity="1" stop-color="rgb(27.978516%, 38.583374%, 53.93219%)" offset="0.554688"/><stop stop-opacity="1" stop-color="rgb(27.853394%, 38.349915%, 53.567505%)" offset="0.558594"/><stop stop-opacity="1" stop-color="rgb(27.726746%, 38.117981%, 53.20282%)" offset="0.5625"/><stop stop-opacity="1" stop-color="rgb(27.601624%, 37.884521%, 52.838135%)" offset="0.566406"/><stop stop-opacity="1" stop-color="rgb(27.476501%, 37.651062%, 52.47345%)" offset="0.570312"/><stop stop-opacity="1" stop-color="rgb(27.351379%, 37.419128%, 52.108765%)" offset="0.574219"/><stop stop-opacity="1" stop-color="rgb(27.224731%, 37.185669%, 51.74408%)" offset="0.578125"/><stop stop-opacity="1" stop-color="rgb(27.099609%, 36.953735%, 51.379395%)" offset="0.582031"/><stop stop-opacity="1" stop-color="rgb(26.974487%, 36.720276%, 51.014709%)" offset="0.585938"/><stop stop-opacity="1" stop-color="rgb(26.849365%, 36.488342%, 50.650024%)" offset="0.589844"/><stop stop-opacity="1" stop-color="rgb(26.722717%, 36.254883%, 50.285339%)" offset="0.59375"/><stop stop-opacity="1" stop-color="rgb(26.597595%, 36.021423%, 49.920654%)" offset="0.597656"/><stop stop-opacity="1" stop-color="rgb(26.472473%, 35.78949%, 49.555969%)" offset="0.601562"/><stop stop-opacity="1" stop-color="rgb(26.345825%, 35.55603%, 49.191284%)" offset="0.605469"/><stop stop-opacity="1" stop-color="rgb(26.220703%, 35.324097%, 48.826599%)" offset="0.609375"/><stop stop-opacity="1" stop-color="rgb(26.095581%, 35.090637%, 48.461914%)" offset="0.613281"/><stop stop-opacity="1" stop-color="rgb(25.970459%, 34.858704%, 48.097229%)" offset="0.617188"/><stop stop-opacity="1" stop-color="rgb(25.843811%, 34.625244%, 47.73407%)" offset="0.621094"/><stop stop-opacity="1" stop-color="rgb(25.718689%, 34.391785%, 47.369385%)" offset="0.625"/><stop stop-opacity="1" stop-color="rgb(25.593567%, 34.159851%, 47.0047%)" offset="0.628906"/><stop stop-opacity="1" stop-color="rgb(25.466919%, 33.926392%, 46.640015%)" offset="0.632812"/><stop stop-opacity="1" stop-color="rgb(25.341797%, 33.694458%, 46.27533%)" offset="0.636719"/><stop stop-opacity="1" stop-color="rgb(25.216675%, 33.460999%, 45.910645%)" offset="0.640625"/><stop stop-opacity="1" stop-color="rgb(25.091553%, 33.229065%, 45.545959%)" offset="0.644531"/><stop stop-opacity="1" stop-color="rgb(24.964905%, 32.995605%, 45.181274%)" offset="0.648438"/><stop stop-opacity="1" stop-color="rgb(24.839783%, 32.762146%, 44.816589%)" offset="0.652344"/><stop stop-opacity="1" stop-color="rgb(24.714661%, 32.530212%, 44.451904%)" offset="0.65625"/><stop stop-opacity="1" stop-color="rgb(24.589539%, 32.296753%, 44.087219%)" offset="0.660156"/><stop stop-opacity="1" stop-color="rgb(24.462891%, 32.064819%, 43.722534%)" offset="0.664062"/><stop stop-opacity="1" stop-color="rgb(24.337769%, 31.83136%, 43.357849%)" offset="0.667969"/><stop stop-opacity="1" stop-color="rgb(24.212646%, 31.5979%, 42.993164%)" offset="0.671875"/><stop stop-opacity="1" stop-color="rgb(24.085999%, 31.365967%, 42.628479%)" offset="0.675781"/><stop stop-opacity="1" stop-color="rgb(23.960876%, 31.132507%, 42.263794%)" offset="0.679688"/><stop stop-opacity="1" stop-color="rgb(23.835754%, 30.900574%, 41.899109%)" offset="0.683594"/><stop stop-opacity="1" stop-color="rgb(23.710632%, 30.667114%, 41.534424%)" offset="0.6875"/><stop stop-opacity="1" stop-color="rgb(23.583984%, 30.435181%, 41.169739%)" offset="0.691406"/><stop stop-opacity="1" stop-color="rgb(23.458862%, 30.201721%, 40.805054%)" offset="0.695312"/><stop stop-opacity="1" stop-color="rgb(23.33374%, 29.968262%, 40.440369%)" offset="0.699219"/><stop stop-opacity="1" stop-color="rgb(23.207092%, 29.736328%, 40.077209%)" offset="0.703125"/><stop stop-opacity="1" stop-color="rgb(23.08197%, 29.502869%, 39.712524%)" offset="0.707031"/><stop stop-opacity="1" stop-color="rgb(22.956848%, 29.270935%, 39.347839%)" offset="0.710938"/><stop stop-opacity="1" stop-color="rgb(22.831726%, 29.037476%, 38.983154%)" offset="0.714844"/><stop stop-opacity="1" stop-color="rgb(22.705078%, 28.805542%, 38.618469%)" offset="0.71875"/><stop stop-opacity="1" stop-color="rgb(22.579956%, 28.572083%, 38.253784%)" offset="0.722656"/><stop stop-opacity="1" stop-color="rgb(22.454834%, 28.338623%, 37.889099%)" offset="0.726562"/><stop stop-opacity="1" stop-color="rgb(22.329712%, 28.106689%, 37.524414%)" offset="0.730469"/><stop stop-opacity="1" stop-color="rgb(22.203064%, 27.87323%, 37.159729%)" offset="0.734375"/><stop stop-opacity="1" stop-color="rgb(22.077942%, 27.641296%, 36.795044%)" offset="0.738281"/><stop stop-opacity="1" stop-color="rgb(21.95282%, 27.407837%, 36.430359%)" offset="0.742188"/><stop stop-opacity="1" stop-color="rgb(21.826172%, 27.175903%, 36.065674%)" offset="0.746094"/><stop stop-opacity="1" stop-color="rgb(21.70105%, 26.942444%, 35.700989%)" offset="0.75"/><stop stop-opacity="1" stop-color="rgb(21.575928%, 26.708984%, 35.336304%)" offset="0.753906"/><stop stop-opacity="1" stop-color="rgb(21.450806%, 26.477051%, 34.971619%)" offset="0.757812"/><stop stop-opacity="1" stop-color="rgb(21.324158%, 26.243591%, 34.606934%)" offset="0.761719"/><stop stop-opacity="1" stop-color="rgb(21.199036%, 26.011658%, 34.242249%)" offset="0.765625"/><stop stop-opacity="1" stop-color="rgb(21.073914%, 25.778198%, 33.877563%)" offset="0.769531"/><stop stop-opacity="1" stop-color="rgb(20.947266%, 25.546265%, 33.512878%)" offset="0.773438"/><stop stop-opacity="1" stop-color="rgb(20.822144%, 25.312805%, 33.148193%)" offset="0.777344"/><stop stop-opacity="1" stop-color="rgb(20.697021%, 25.079346%, 32.785034%)" offset="0.78125"/><stop stop-opacity="1" stop-color="rgb(20.571899%, 24.847412%, 32.420349%)" offset="0.785156"/><stop stop-opacity="1" stop-color="rgb(20.445251%, 24.613953%, 32.055664%)" offset="0.789062"/><stop stop-opacity="1" stop-color="rgb(20.320129%, 24.382019%, 31.690979%)" offset="0.792969"/><stop stop-opacity="1" stop-color="rgb(20.195007%, 24.14856%, 31.326294%)" offset="0.796875"/><stop stop-opacity="1" stop-color="rgb(20.069885%, 23.9151%, 30.961609%)" offset="0.800781"/><stop stop-opacity="1" stop-color="rgb(19.943237%, 23.683167%, 30.596924%)" offset="0.804688"/><stop stop-opacity="1" stop-color="rgb(19.818115%, 23.449707%, 30.232239%)" offset="0.808594"/><stop stop-opacity="1" stop-color="rgb(19.692993%, 23.217773%, 29.867554%)" offset="0.8125"/><stop stop-opacity="1" stop-color="rgb(19.566345%, 22.984314%, 29.502869%)" offset="0.816406"/><stop stop-opacity="1" stop-color="rgb(19.441223%, 22.75238%, 29.138184%)" offset="0.820312"/><stop stop-opacity="1" stop-color="rgb(19.316101%, 22.518921%, 28.773499%)" offset="0.824219"/><stop stop-opacity="1" stop-color="rgb(19.190979%, 22.285461%, 28.408813%)" offset="0.828125"/><stop stop-opacity="1" stop-color="rgb(19.064331%, 22.053528%, 28.044128%)" offset="0.832031"/><stop stop-opacity="1" stop-color="rgb(18.939209%, 21.820068%, 27.679443%)" offset="0.835938"/><stop stop-opacity="1" stop-color="rgb(18.814087%, 21.588135%, 27.314758%)" offset="0.839844"/><stop stop-opacity="1" stop-color="rgb(18.687439%, 21.354675%, 26.950073%)" offset="0.84375"/><stop stop-opacity="1" stop-color="rgb(18.562317%, 21.122742%, 26.585388%)" offset="0.847656"/><stop stop-opacity="1" stop-color="rgb(18.437195%, 20.889282%, 26.220703%)" offset="0.851562"/><stop stop-opacity="1" stop-color="rgb(18.312073%, 20.655823%, 25.856018%)" offset="0.855469"/><stop stop-opacity="1" stop-color="rgb(18.185425%, 20.423889%, 25.492859%)" offset="0.859375"/><stop stop-opacity="1" stop-color="rgb(18.060303%, 20.19043%, 25.128174%)" offset="0.863281"/><stop stop-opacity="1" stop-color="rgb(17.935181%, 19.958496%, 24.763489%)" offset="0.867188"/><stop stop-opacity="1" stop-color="rgb(17.810059%, 19.725037%, 24.398804%)" offset="0.871094"/><stop stop-opacity="1" stop-color="rgb(17.683411%, 19.493103%, 24.034119%)" offset="0.875"/><stop stop-opacity="1" stop-color="rgb(17.558289%, 19.259644%, 23.669434%)" offset="0.878906"/><stop stop-opacity="1" stop-color="rgb(17.433167%, 19.026184%, 23.304749%)" offset="0.882812"/><stop stop-opacity="1" stop-color="rgb(17.306519%, 18.79425%, 22.940063%)" offset="0.886719"/><stop stop-opacity="1" stop-color="rgb(17.181396%, 18.560791%, 22.575378%)" offset="0.890625"/><stop stop-opacity="1" stop-color="rgb(17.056274%, 18.328857%, 22.210693%)" offset="0.894531"/><stop stop-opacity="1" stop-color="rgb(16.931152%, 18.095398%, 21.846008%)" offset="0.898438"/><stop stop-opacity="1" stop-color="rgb(16.804504%, 17.863464%, 21.481323%)" offset="0.902344"/><stop stop-opacity="1" stop-color="rgb(16.679382%, 17.630005%, 21.116638%)" offset="0.90625"/><stop stop-opacity="1" stop-color="rgb(16.55426%, 17.396545%, 20.751953%)" offset="0.910156"/><stop stop-opacity="1" stop-color="rgb(16.427612%, 17.164612%, 20.387268%)" offset="0.914062"/><stop stop-opacity="1" stop-color="rgb(16.30249%, 16.931152%, 20.022583%)" offset="0.917969"/><stop stop-opacity="1" stop-color="rgb(16.177368%, 16.699219%, 19.657898%)" offset="0.921875"/><stop stop-opacity="1" stop-color="rgb(16.052246%, 16.465759%, 19.293213%)" offset="0.925781"/><stop stop-opacity="1" stop-color="rgb(15.925598%, 16.2323%, 18.928528%)" offset="0.929688"/><stop stop-opacity="1" stop-color="rgb(15.800476%, 16.000366%, 18.563843%)" offset="0.933594"/><stop stop-opacity="1" stop-color="rgb(15.675354%, 15.766907%, 18.200684%)" offset="0.9375"/><stop stop-opacity="1" stop-color="rgb(15.548706%, 15.534973%, 17.835999%)" offset="0.941406"/><stop stop-opacity="1" stop-color="rgb(15.423584%, 15.301514%, 17.471313%)" offset="0.945312"/><stop stop-opacity="1" stop-color="rgb(15.298462%, 15.06958%, 17.106628%)" offset="0.949219"/><stop stop-opacity="1" stop-color="rgb(15.17334%, 14.836121%, 16.741943%)" offset="0.953125"/><stop stop-opacity="1" stop-color="rgb(15.046692%, 14.602661%, 16.377258%)" offset="0.957031"/><stop stop-opacity="1" stop-color="rgb(14.92157%, 14.370728%, 16.012573%)" offset="0.960938"/><stop stop-opacity="1" stop-color="rgb(14.796448%, 14.137268%, 15.647888%)" offset="0.964844"/><stop stop-opacity="1" stop-color="rgb(14.671326%, 13.905334%, 15.283203%)" offset="0.96875"/><stop stop-opacity="1" stop-color="rgb(14.544678%, 13.671875%, 14.918518%)" offset="0.972656"/><stop stop-opacity="1" stop-color="rgb(14.419556%, 13.439941%, 14.553833%)" offset="0.976562"/><stop stop-opacity="1" stop-color="rgb(14.294434%, 13.206482%, 14.189148%)" offset="0.980469"/><stop stop-opacity="1" stop-color="rgb(14.167786%, 12.973022%, 13.824463%)" offset="0.984375"/><stop stop-opacity="1" stop-color="rgb(14.042664%, 12.741089%, 13.459778%)" offset="0.988281"/><stop stop-opacity="1" stop-color="rgb(13.917542%, 12.507629%, 13.095093%)" offset="0.992188"/><stop stop-opacity="1" stop-color="rgb(13.792419%, 12.275696%, 12.730408%)" offset="0.996094"/><stop stop-opacity="1" stop-color="rgb(13.729858%, 12.159729%, 12.548828%)" offset="1"/></radialGradient></defs><g clip-path="url(#6933153f2f)"><g clip-path="url(#789cdecdac)"><path fill="url(#e13fc7a46e)" d="M 20.515625 290.683594 L 20.515625 647.332031 L 699.839844 647.332031 L 699.839844 290.683594 Z M 20.515625 290.683594 " fill-rule="nonzero"/></g></g><path fill="#6181b6" d="M 686.574219 469.007812 C 686.574219 471.710938 686.441406 474.410156 686.179688 477.109375 C 685.917969 479.804688 685.527344 482.5 685.003906 485.1875 C 684.476562 487.875 683.824219 490.558594 683.039062 493.230469 C 682.257812 495.902344 681.34375 498.5625 680.300781 501.210938 C 679.261719 503.863281 678.089844 506.496094 676.792969 509.117188 C 675.492188 511.738281 674.070312 514.339844 672.519531 516.925781 C 670.96875 519.511719 669.292969 522.078125 667.492188 524.621094 C 665.695312 527.164062 663.773438 529.683594 661.726562 532.179688 C 659.683594 534.675781 657.519531 537.144531 655.234375 539.585938 C 652.953125 542.027344 650.550781 544.441406 648.035156 546.824219 C 645.515625 549.207031 642.882812 551.554688 640.136719 553.875 C 637.390625 556.191406 634.535156 558.472656 631.566406 560.71875 C 628.597656 562.964844 625.523438 565.171875 622.339844 567.34375 C 619.160156 569.511719 615.875 571.640625 612.484375 573.730469 C 609.097656 575.820312 605.609375 577.863281 602.023438 579.867188 C 598.433594 581.867188 594.753906 583.824219 590.976562 585.734375 C 587.199219 587.644531 583.332031 589.507812 579.371094 591.320312 C 575.414062 593.136719 571.371094 594.898438 567.242188 596.613281 C 563.113281 598.328125 558.902344 599.988281 554.613281 601.597656 C 550.320312 603.207031 545.957031 604.761719 541.515625 606.261719 C 537.074219 607.765625 532.5625 609.207031 527.980469 610.597656 C 523.398438 611.988281 518.75 613.316406 514.039062 614.589844 C 509.328125 615.863281 504.558594 617.078125 499.730469 618.234375 C 494.902344 619.390625 490.019531 620.484375 485.085938 621.515625 C 480.148438 622.550781 475.167969 623.523438 470.136719 624.433594 C 465.109375 625.34375 460.039062 626.191406 454.925781 626.976562 C 449.816406 627.757812 444.667969 628.480469 439.488281 629.136719 C 434.304688 629.792969 429.09375 630.382812 423.855469 630.910156 C 418.617188 631.4375 413.355469 631.898438 408.070312 632.296875 C 402.789062 632.691406 397.488281 633.023438 392.171875 633.289062 C 386.855469 633.554688 381.53125 633.75 376.195312 633.882812 C 370.859375 634.015625 365.519531 634.082031 360.179688 634.082031 C 354.835938 634.082031 349.5 634.015625 344.164062 633.882812 C 338.828125 633.75 333.503906 633.554688 328.1875 633.289062 C 322.871094 633.023438 317.570312 632.691406 312.285156 632.296875 C 307.003906 631.898438 301.742188 631.4375 296.503906 630.910156 C 291.261719 630.382812 286.054688 629.792969 280.871094 629.136719 C 275.691406 628.480469 270.542969 627.757812 265.433594 626.976562 C 260.320312 626.191406 255.25 625.34375 250.21875 624.433594 C 245.191406 623.523438 240.207031 622.550781 235.273438 621.515625 C 230.339844 620.484375 225.457031 619.390625 220.628906 618.234375 C 215.796875 617.078125 211.027344 615.863281 206.316406 614.589844 C 201.605469 613.316406 196.960938 611.988281 192.378906 610.597656 C 187.796875 609.207031 183.285156 607.765625 178.84375 606.261719 C 174.402344 604.761719 170.035156 603.207031 165.746094 601.597656 C 161.457031 599.988281 157.246094 598.328125 153.117188 596.613281 C 148.988281 594.898438 144.945312 593.136719 140.984375 591.320312 C 137.027344 589.507812 133.160156 587.644531 129.382812 585.734375 C 125.605469 583.824219 121.925781 581.867188 118.335938 579.867188 C 114.75 577.863281 111.261719 575.820312 107.871094 573.730469 C 104.484375 571.640625 101.199219 569.511719 98.015625 567.34375 C 94.835938 565.171875 91.757812 562.964844 88.792969 560.71875 C 85.824219 558.472656 82.96875 556.191406 80.222656 553.875 C 77.476562 551.554688 74.84375 549.207031 72.324219 546.824219 C 69.808594 544.441406 67.40625 542.027344 65.121094 539.585938 C 62.839844 537.144531 60.675781 534.675781 58.628906 532.179688 C 56.585938 529.683594 54.664062 527.164062 52.863281 524.621094 C 51.066406 522.078125 49.390625 519.511719 47.839844 516.925781 C 46.289062 514.339844 44.863281 511.738281 43.566406 509.117188 C 42.269531 506.496094 41.097656 503.863281 40.054688 501.210938 C 39.015625 498.5625 38.101562 495.902344 37.316406 493.230469 C 36.535156 490.558594 35.878906 487.875 35.355469 485.1875 C 34.832031 482.5 34.441406 479.804688 34.175781 477.109375 C 33.914062 474.410156 33.785156 471.710938 33.785156 469.007812 C 33.785156 466.304688 33.914062 463.605469 34.175781 460.910156 C 34.441406 458.210938 34.832031 455.515625 35.355469 452.828125 C 35.878906 450.140625 36.535156 447.457031 37.316406 444.785156 C 38.101562 442.113281 39.015625 439.453125 40.054688 436.804688 C 41.097656 434.152344 42.269531 431.519531 43.566406 428.898438 C 44.863281 426.277344 46.289062 423.675781 47.839844 421.089844 C 49.390625 418.503906 51.066406 415.941406 52.863281 413.394531 C 54.664062 410.851562 56.585938 408.332031 58.628906 405.835938 C 60.675781 403.339844 62.839844 400.871094 65.121094 398.429688 C 67.40625 395.988281 69.808594 393.574219 72.324219 391.191406 C 74.84375 388.808594 77.476562 386.460938 80.222656 384.140625 C 82.96875 381.824219 85.824219 379.542969 88.792969 377.296875 C 91.757812 375.050781 94.835938 372.84375 98.015625 370.671875 C 101.199219 368.503906 104.484375 366.375 107.871094 364.285156 C 111.261719 362.195312 114.75 360.152344 118.335938 358.152344 C 121.925781 356.148438 125.605469 354.191406 129.382812 352.28125 C 133.160156 350.371094 137.027344 348.511719 140.984375 346.695312 C 144.945312 344.882812 148.988281 343.117188 153.117188 341.402344 C 157.246094 339.691406 161.457031 338.027344 165.746094 336.417969 C 170.035156 334.808594 174.402344 333.253906 178.84375 331.753906 C 183.285156 330.253906 187.796875 328.808594 192.378906 327.417969 C 196.960938 326.03125 201.605469 324.699219 206.316406 323.425781 C 211.027344 322.152344 215.796875 320.9375 220.628906 319.78125 C 225.457031 318.625 230.339844 317.53125 235.273438 316.5 C 240.207031 315.464844 245.191406 314.492188 250.21875 313.582031 C 255.25 312.671875 260.320312 311.824219 265.433594 311.042969 C 270.542969 310.257812 275.691406 309.535156 280.871094 308.878906 C 286.054688 308.222656 291.261719 307.632812 296.503906 307.105469 C 301.742188 306.578125 307.003906 306.117188 312.285156 305.71875 C 317.570312 305.324219 322.871094 304.992188 328.1875 304.726562 C 333.503906 304.464844 338.828125 304.265625 344.164062 304.132812 C 349.5 304 354.835938 303.933594 360.179688 303.933594 C 365.519531 303.933594 370.859375 304 376.195312 304.132812 C 381.53125 304.265625 386.855469 304.464844 392.171875 304.726562 C 397.488281 304.992188 402.789062 305.324219 408.070312 305.71875 C 413.355469 306.117188 418.617188 306.578125 423.855469 307.105469 C 429.09375 307.632812 434.304688 308.222656 439.488281 308.878906 C 444.667969 309.535156 449.816406 310.257812 454.925781 311.042969 C 460.039062 311.824219 465.109375 312.671875 470.136719 313.582031 C 475.167969 314.492188 480.148438 315.464844 485.085938 316.5 C 490.019531 317.53125 494.902344 318.625 499.730469 319.78125 C 504.558594 320.9375 509.328125 322.152344 514.039062 323.425781 C 518.75 324.699219 523.398438 326.03125 527.980469 327.417969 C 532.5625 328.808594 537.074219 330.253906 541.515625 331.753906 C 545.957031 333.253906 550.320312 334.808594 554.613281 336.417969 C 558.902344 338.027344 563.113281 339.691406 567.242188 341.402344 C 571.371094 343.117188 575.414062 344.882812 579.371094 346.695312 C 583.332031 348.511719 587.199219 350.371094 590.976562 352.28125 C 594.753906 354.191406 598.433594 356.148438 602.023438 358.152344 C 605.609375 360.152344 609.097656 362.195312 612.484375 364.285156 C 615.875 366.375 619.160156 368.503906 622.339844 370.671875 C 625.523438 372.84375 628.597656 375.050781 631.566406 377.296875 C 634.535156 379.542969 637.390625 381.824219 640.136719 384.140625 C 642.882812 386.460938 645.515625 388.808594 648.035156 391.191406 C 650.550781 393.574219 652.953125 395.988281 655.234375 398.429688 C 657.519531 400.871094 659.683594 403.339844 661.726562 405.835938 C 663.773438 408.332031 665.695312 410.851562 667.492188 413.394531 C 669.292969 415.941406 670.96875 418.503906 672.519531 421.089844 C 674.070312 423.675781 675.492188 426.277344 676.792969 428.898438 C 678.089844 431.519531 679.261719 434.152344 680.300781 436.804688 C 681.34375 439.453125 682.257812 442.113281 683.039062 444.785156 C 683.824219 447.457031 684.476562 450.140625 685.003906 452.828125 C 685.527344 455.515625 685.917969 458.210938 686.179688 460.90625 C 686.441406 463.605469 686.574219 466.304688 686.574219 469.007812 Z M 686.574219 469.007812 " fill-opacity="1" fill-rule="nonzero"/><path fill="#ffffff" d="M 426.253906 522.53125 L 442.441406 439.332031 C 446.15625 420.519531 442.972656 406.476562 433.417969 397.730469 C 424.132812 389.253906 408.210938 385.011719 384.859375 385.011719 L 356.730469 385.011719 L 364.691406 343.679688 C 364.957031 342.089844 364.691406 340.5 363.628906 339.171875 C 362.566406 337.847656 361.242188 337.320312 359.648438 337.320312 L 320.90625 337.320312 C 318.253906 337.320312 316.128906 339.171875 315.597656 341.558594 L 298.351562 429.792969 C 296.757812 419.722656 293.042969 411.246094 286.675781 404.355469 C 275.261719 391.371094 257.484375 384.75 233.335938 384.75 L 158.769531 384.75 C 156.117188 384.75 153.992188 386.601562 153.460938 388.988281 L 118.699219 568.105469 C 118.433594 569.695312 118.699219 571.285156 119.761719 572.609375 C 120.824219 573.933594 122.148438 574.464844 123.742188 574.464844 L 162.75 574.464844 C 165.402344 574.464844 167.527344 572.609375 168.058594 570.226562 L 176.550781 527.035156 L 205.472656 527.035156 C 220.597656 527.035156 233.601562 525.445312 243.421875 522.265625 C 253.769531 518.820312 263.058594 513.257812 271.28125 505.574219 C 277.917969 499.480469 283.488281 492.589844 287.734375 485.171875 L 280.835938 520.941406 C 280.570312 522.53125 280.835938 524.121094 281.898438 525.445312 C 282.960938 526.769531 284.285156 527.300781 285.878906 527.300781 L 324.621094 527.300781 C 327.273438 527.300781 329.398438 525.445312 329.929688 523.0625 L 349.035156 425.023438 L 375.570312 425.023438 C 386.980469 425.023438 390.164062 427.144531 391.226562 428.203125 C 392.023438 428.996094 393.613281 432.175781 391.757812 441.980469 L 376.367188 521.207031 C 376.101562 522.796875 376.367188 524.386719 377.425781 525.710938 C 378.488281 527.035156 379.816406 527.566406 381.40625 527.566406 L 421.210938 527.566406 C 423.601562 526.769531 425.722656 524.917969 426.253906 522.53125 Z M 246.871094 453.640625 C 244.480469 466.09375 239.96875 475.101562 233.335938 480.136719 C 226.703125 485.171875 215.824219 487.820312 201.492188 487.820312 L 184.246094 487.820312 L 196.714844 423.699219 L 219.007812 423.699219 C 235.460938 423.699219 242.09375 427.144531 244.746094 430.058594 C 248.195312 434.296875 248.992188 442.511719 246.871094 453.640625 Z M 246.871094 453.640625 " fill-opacity="1" fill-rule="nonzero"/><path fill="#ffffff" d="M 591.839844 404.355469 C 580.429688 391.371094 562.648438 384.75 538.503906 384.75 L 463.40625 384.75 C 460.75 384.75 458.628906 386.601562 458.097656 388.988281 L 423.335938 567.839844 C 423.070312 569.429688 423.335938 571.019531 424.398438 572.34375 C 425.457031 573.671875 426.785156 574.199219 428.378906 574.199219 L 467.386719 574.199219 C 470.039062 574.199219 472.160156 572.34375 472.691406 569.960938 L 481.183594 526.769531 L 510.109375 526.769531 C 525.234375 526.769531 538.238281 525.179688 548.054688 522 C 558.402344 518.558594 567.691406 512.992188 575.917969 505.308594 C 582.816406 498.949219 588.65625 491.796875 592.902344 484.109375 C 597.148438 476.425781 600.332031 467.949219 602.1875 458.675781 C 606.699219 435.621094 603.25 417.605469 591.839844 404.355469 Z M 551.238281 453.640625 C 548.851562 466.09375 544.339844 475.101562 537.707031 480.136719 C 531.070312 485.171875 520.191406 487.820312 505.863281 487.820312 L 488.613281 487.820312 L 501.085938 423.699219 L 523.375 423.699219 C 539.828125 423.699219 546.460938 427.144531 549.117188 430.058594 C 552.832031 434.296875 553.628906 442.511719 551.238281 453.640625 Z M 551.238281 453.640625 " fill-opacity="1" fill-rule="nonzero"/><path fill="#000004" d="M 219.007812 418.398438 C 233.867188 418.398438 243.683594 421.050781 248.726562 426.613281 C 253.769531 432.175781 254.832031 441.453125 252.175781 454.699219 C 249.523438 468.476562 244.214844 478.546875 236.519531 484.375 C 228.824219 490.207031 217.148438 493.121094 201.492188 493.121094 L 177.875 493.121094 L 192.46875 418.398438 Z M 124.007812 568.902344 L 163.015625 568.902344 L 172.304688 521.472656 L 205.738281 521.472656 C 220.597656 521.472656 232.539062 519.882812 242.09375 516.703125 C 251.644531 513.523438 260.136719 508.488281 268.097656 501.070312 C 274.734375 494.976562 280.039062 488.351562 284.019531 481.195312 C 288 474.042969 290.917969 466.09375 292.511719 457.347656 C 296.757812 436.152344 293.574219 419.722656 283.222656 407.800781 C 272.875 395.875 256.421875 390.046875 233.867188 390.046875 L 158.769531 390.046875 Z M 124.007812 568.902344 " fill-opacity="1" fill-rule="nonzero"/><path fill="#000004" d="M 321.171875 342.617188 L 359.914062 342.617188 L 350.625 390.046875 L 385.125 390.046875 C 406.882812 390.046875 421.742188 393.757812 429.96875 401.441406 C 438.195312 409.125 440.582031 421.3125 437.398438 438.273438 L 421.210938 521.472656 L 381.9375 521.472656 L 397.328125 442.246094 C 399.1875 433.238281 398.390625 427.144531 395.472656 423.964844 C 392.554688 420.785156 385.917969 418.929688 376.101562 418.929688 L 345.054688 418.929688 L 325.152344 521.472656 L 286.410156 521.472656 Z M 321.171875 342.617188 " fill-opacity="1" fill-rule="nonzero"/><path fill="#000004" d="M 523.375 418.398438 C 538.238281 418.398438 548.054688 421.050781 553.097656 426.613281 C 558.140625 432.175781 559.199219 441.453125 556.546875 454.699219 C 553.894531 468.476562 548.585938 478.546875 540.890625 484.375 C 533.195312 490.207031 521.519531 493.121094 505.863281 493.121094 L 482.246094 493.121094 L 496.839844 418.398438 Z M 428.378906 568.902344 L 467.386719 568.902344 L 476.671875 521.472656 L 510.109375 521.472656 C 524.96875 521.472656 536.910156 519.882812 546.460938 516.703125 C 556.015625 513.523438 564.507812 508.488281 572.46875 501.070312 C 579.101562 494.976562 584.410156 488.351562 588.390625 481.195312 C 592.371094 474.042969 595.289062 466.09375 596.882812 457.347656 C 601.128906 436.152344 597.941406 419.722656 587.59375 407.800781 C 577.246094 395.875 560.792969 390.046875 538.238281 390.046875 L 463.140625 390.046875 Z M 428.378906 568.902344 " fill-opacity="1" fill-rule="nonzero"/></svg>