<svg xmlns="http://www.w3.org/2000/svg" xmlns:xlink="http://www.w3.org/1999/xlink" width="960" zoomAndPan="magnify" viewBox="0 0 720 972.749988" height="1297" preserveAspectRatio="xMidYMid meet" version="1.0"><defs><clipPath id="27ac6527ec"><path d="M 15 179 L 705.765625 179 L 705.765625 794 L 15 794 Z M 15 179 " clip-rule="nonzero"/></clipPath></defs><g clip-path="url(#27ac6527ec)"><path fill="#00d8ff" d="M 582.382812 378.277344 C 575.242188 375.8125 567.832031 373.484375 560.175781 371.28125 C 561.445312 366.15625 562.601562 361.105469 563.628906 356.136719 C 580.417969 274.554688 569.449219 208.832031 531.90625 187.191406 C 495.902344 166.445312 437.046875 188.078125 377.59375 239.796875 C 371.882812 244.773438 366.140625 250.035156 360.429688 255.554688 C 356.601562 251.902344 352.800781 248.375 349 245 C 286.695312 189.699219 224.246094 166.394531 186.746094 188.09375 C 150.789062 208.90625 140.140625 270.6875 155.273438 348.003906 C 156.734375 355.472656 158.445312 363.101562 160.375 370.855469 C 151.539062 373.363281 143.003906 376.035156 134.84375 378.878906 C 61.796875 404.335938 15.152344 444.238281 15.152344 485.625 C 15.152344 528.355469 65.230469 571.246094 141.308594 597.242188 C 147.308594 599.292969 153.539062 601.230469 159.960938 603.0625 C 157.875 611.441406 156.066406 619.660156 154.542969 627.6875 C 140.113281 703.664062 151.382812 763.984375 187.242188 784.648438 C 224.28125 806.011719 286.453125 784.054688 346.980469 731.167969 C 351.777344 726.992188 356.574219 722.546875 361.371094 717.914062 C 367.625 723.894531 373.847656 729.578125 380.019531 734.914062 C 438.664062 785.347656 496.578125 805.714844 532.394531 784.996094 C 569.394531 763.578125 581.441406 698.757812 565.808594 619.929688 C 564.625 613.894531 563.222656 607.75 561.6875 601.5 C 566.050781 600.207031 570.335938 598.859375 574.515625 597.488281 C 653.613281 571.273438 705.058594 528.949219 705.058594 485.625 C 705.058594 444.085938 656.898438 403.917969 582.382812 378.277344 Z M 565.246094 569.523438 C 561.472656 570.761719 557.589844 571.972656 553.65625 573.132812 C 544.925781 545.515625 533.148438 516.125 518.703125 485.761719 C 532.472656 456.125 543.792969 427.121094 552.28125 399.667969 C 559.34375 401.710938 566.1875 403.863281 572.789062 406.132812 C 636.632812 428.105469 675.574219 460.597656 675.574219 485.625 C 675.574219 512.269531 633.535156 546.890625 565.246094 569.523438 Z M 536.894531 625.640625 C 543.820312 660.503906 544.789062 692.023438 540.207031 716.675781 C 536.113281 738.820312 527.839844 753.585938 517.625 759.484375 C 495.875 772.066406 449.386719 755.710938 399.261719 712.578125 C 393.496094 707.621094 387.699219 702.34375 381.90625 696.765625 C 401.335938 675.507812 420.769531 650.804688 439.742188 623.351562 C 473.078125 620.414062 504.582031 615.5625 533.175781 608.964844 C 534.574219 614.648438 535.816406 620.199219 536.894531 625.640625 Z M 250.367188 757.300781 C 229.125 764.820312 212.207031 765.035156 201.980469 759.132812 C 180.21875 746.578125 171.171875 698.140625 183.511719 633.183594 C 184.925781 625.746094 186.605469 618.097656 188.546875 610.285156 C 216.804688 616.535156 248.085938 621.035156 281.515625 623.726562 C 300.609375 650.585938 320.609375 675.265625 340.738281 696.871094 C 336.347656 701.128906 331.953125 705.171875 327.585938 708.96875 C 300.828125 732.382812 274.007812 748.976562 250.367188 757.300781 Z M 150.851562 569.359375 C 117.210938 557.855469 89.425781 542.929688 70.382812 526.605469 C 53.269531 511.976562 44.632812 497.425781 44.632812 485.625 C 44.632812 460.515625 82.085938 428.472656 144.550781 406.703125 C 152.132812 404.058594 160.066406 401.570312 168.300781 399.230469 C 176.933594 427.304688 188.257812 456.664062 201.925781 486.328125 C 188.082031 516.449219 176.59375 546.269531 167.875 574.695312 C 162.007812 572.996094 156.320312 571.21875 150.851562 569.359375 Z M 184.207031 342.347656 C 171.242188 276.105469 179.851562 226.136719 201.523438 213.59375 C 224.601562 200.238281 275.640625 219.28125 329.421875 267.03125 C 332.871094 270.085938 336.320312 273.277344 339.796875 276.582031 C 319.746094 298.101562 299.9375 322.597656 281.011719 349.292969 C 248.566406 352.300781 217.507812 357.128906 188.953125 363.597656 C 187.15625 356.375 185.566406 349.28125 184.207031 342.347656 Z M 481.785156 415.808594 C 474.964844 404.019531 467.960938 392.511719 460.816406 381.316406 C 482.835938 384.097656 503.910156 387.792969 523.71875 392.308594 C 517.789062 411.359375 510.378906 431.277344 501.644531 451.707031 C 495.394531 439.820312 488.765625 427.84375 481.785156 415.808594 Z M 360.429688 297.640625 C 374.039062 312.363281 387.648438 328.800781 401.042969 346.636719 C 387.542969 346 373.878906 345.667969 360.105469 345.667969 C 346.472656 345.667969 332.914062 345.992188 319.496094 346.621094 C 332.886719 328.949219 346.632812 312.535156 360.429688 297.640625 Z M 238.300781 416.011719 C 231.484375 427.832031 224.984375 439.742188 218.824219 451.679688 C 210.242188 431.328125 202.898438 411.320312 196.902344 391.996094 C 216.589844 387.59375 237.578125 383.992188 259.449219 381.265625 C 252.203125 392.5625 245.136719 404.15625 238.300781 416.011719 Z M 260.078125 592.070312 C 237.480469 589.566406 216.175781 586.144531 196.496094 581.859375 C 202.589844 562.195312 210.09375 541.773438 218.859375 520.972656 C 225.035156 532.910156 231.554688 544.816406 238.417969 556.671875 C 245.40625 568.742188 252.648438 580.539062 260.078125 592.070312 Z M 361.238281 675.671875 C 347.28125 660.609375 333.347656 643.933594 319.738281 626.015625 C 332.941406 626.53125 346.417969 626.796875 360.109375 626.796875 C 374.175781 626.796875 388.082031 626.476562 401.746094 625.882812 C 388.324219 644.121094 374.742188 660.824219 361.238281 675.671875 Z M 501.914062 519.921875 C 511.132812 540.9375 518.921875 561.25 525.09375 580.59375 C 505.09375 585.148438 483.480469 588.8125 460.738281 591.558594 C 467.90625 580.21875 474.964844 568.496094 481.917969 556.457031 C 488.953125 544.277344 495.609375 532.074219 501.914062 519.921875 Z M 456.371094 541.746094 C 445.589844 560.441406 434.515625 578.277344 423.277344 595.117188 C 402.824219 596.570312 381.667969 597.324219 360.109375 597.324219 C 338.628906 597.324219 317.742188 596.679688 297.636719 595.359375 C 285.941406 578.304688 274.636719 560.414062 263.921875 541.90625 L 263.925781 541.90625 C 253.238281 523.453125 243.398438 504.835938 234.488281 486.328125 C 243.398438 467.792969 253.210938 449.148438 263.835938 430.726562 L 263.832031 430.730469 C 274.484375 412.261719 285.699219 394.453125 297.289062 377.492188 C 317.796875 375.941406 338.84375 375.132812 360.109375 375.132812 C 381.476562 375.132812 402.527344 375.949219 423.035156 377.511719 C 434.460938 394.347656 445.589844 412.097656 456.289062 430.570312 C 467.097656 449.253906 477.042969 467.765625 486.015625 485.921875 C 477.066406 504.378906 467.152344 523.074219 456.371094 541.746094 Z M 517.167969 212.710938 C 540.292969 226.03125 549.265625 279.742188 534.738281 350.183594 C 533.824219 354.675781 532.773438 359.253906 531.640625 363.890625 C 503.019531 357.289062 471.949219 352.378906 439.417969 349.324219 C 420.449219 322.339844 400.800781 297.804688 381.074219 276.5625 C 386.382812 271.464844 391.691406 266.601562 396.949219 262.015625 C 447.882812 217.703125 495.5 200.207031 517.167969 212.710938 Z M 360.109375 424.023438 C 394.117188 424.023438 421.714844 451.589844 421.714844 485.617188 C 421.714844 519.617188 394.117188 547.207031 360.109375 547.207031 C 326.097656 547.207031 298.5 519.617188 298.5 485.617188 C 298.5 451.589844 326.097656 424.023438 360.109375 424.023438 Z M 360.109375 424.023438 " fill-opacity="1" fill-rule="nonzero"/></g></svg>