<svg xmlns="http://www.w3.org/2000/svg" xmlns:xlink="http://www.w3.org/1999/xlink" width="960" zoomAndPan="magnify" viewBox="0 0 720 972.749988" height="1297" preserveAspectRatio="xMidYMid meet" version="1.0"><defs><clipPath id="b9be850558"><path d="M 49.042969 175.292969 L 670.632812 175.292969 L 670.632812 796.882812 L 49.042969 796.882812 Z M 49.042969 175.292969 " clip-rule="nonzero"/></clipPath></defs><g clip-path="url(#b9be850558)"><path fill="#007acc" d="M 49.042969 796.882812 L 670.632812 796.882812 L 670.632812 175.292969 L 49.042969 175.292969 Z M 49.042969 796.882812 " fill-opacity="1" fill-rule="nonzero"/></g><path fill="#ffffff" d="M 186.472656 488.128906 L 186.277344 513.597656 L 267.183594 513.597656 L 267.183594 743.488281 L 324.410156 743.488281 L 324.410156 513.597656 L 405.316406 513.597656 L 405.316406 488.636719 C 405.316406 474.820312 405.019531 463.265625 404.625 462.972656 C 404.332031 462.585938 355.097656 462.390625 295.394531 462.488281 L 186.765625 462.777344 Z M 186.472656 488.128906 " fill-opacity="1" fill-rule="nonzero"/><path fill="#ffffff" d="M 550.613281 462.074219 C 566.394531 466.007812 578.4375 473.023438 589.484375 484.460938 C 595.191406 490.578125 603.691406 501.726562 604.371094 504.394531 C 604.566406 505.195312 577.539062 523.335938 561.152344 533.507812 C 560.566406 533.898438 558.210938 531.324219 555.542969 527.390625 C 547.554688 515.734375 539.152344 510.707031 526.332031 509.835938 C 507.488281 508.546875 495.347656 518.40625 495.445312 534.890625 C 495.445312 539.722656 496.152344 542.589844 498.117188 546.523438 C 502.269531 555.117188 509.964844 560.242188 534.125 570.707031 C 578.632812 589.839844 597.667969 602.464844 609.519531 620.433594 C 622.726562 640.464844 625.6875 672.417969 616.707031 696.191406 C 606.847656 722.050781 582.371094 739.605469 547.941406 745.433594 C 537.28125 747.300781 512.03125 747.011719 500.570312 744.945312 C 475.609375 740.503906 451.933594 728.167969 437.34375 711.996094 C 431.613281 705.683594 420.46875 689.199219 421.148438 688.007812 C 421.460938 687.617188 424.011719 686.039062 426.878906 684.367188 C 429.644531 682.789062 440.109375 676.765625 449.96875 671.035156 L 467.816406 660.691406 L 471.578125 666.203125 C 476.800781 674.191406 488.257812 685.140625 495.15625 688.808594 C 514.992188 699.25 542.210938 697.769531 555.640625 685.75 C 561.371094 680.503906 563.722656 675.089844 563.722656 667.101562 C 563.722656 659.890625 562.851562 656.734375 559.085938 651.320312 C 554.253906 644.398438 544.398438 638.570312 516.375 626.457031 C 484.300781 612.640625 470.484375 604.042969 457.859375 590.421875 C 450.550781 582.53125 443.65625 569.90625 440.789062 559.34375 C 438.410156 550.578125 437.828125 528.578125 439.699219 519.691406 C 446.328125 488.710938 469.707031 467.101562 503.433594 460.691406 C 514.386719 458.625 539.855469 459.402344 550.613281 462.074219 Z M 550.613281 462.074219 " fill-opacity="1" fill-rule="nonzero"/></svg>